<svg xmlns="http://www.w3.org/2000/svg" width="1200" height="630" viewBox="0 0 1200 630">
  <defs>
    <linearGradient id="bg" x1="0%" y1="0%" x2="100%" y2="100%">
      <stop offset="0%" style="stop-color:#0d1b2a"/>
      <stop offset="100%" style="stop-color:#1b2d44"/>
    </linearGradient>
    <pattern id="grid" width="40" height="40" patternUnits="userSpaceOnUse">
      <path d="M 40 0 L 0 0 0 40" fill="none" stroke="rgba(0,180,216,0.08)" stroke-width="0.5"/>
    </pattern>
    <pattern id="gridLarge" width="200" height="200" patternUnits="userSpaceOnUse">
      <path d="M 200 0 L 0 0 0 200" fill="none" stroke="rgba(0,180,216,0.15)" stroke-width="0.5"/>
    </pattern>
  </defs>
  <rect width="1200" height="630" fill="url(#bg)"/>
  <rect width="1200" height="630" fill="url(#grid)"/>
  <rect width="1200" height="630" fill="url(#gridLarge)"/>

  <!-- Border -->
  <rect x="40" y="40" width="1120" height="550" fill="none" stroke="rgba(0,180,216,0.4)" stroke-width="1"/>
  <!-- Corners -->
  <path d="M40,40 L40,70" stroke="#ffd60a" stroke-width="2"/>
  <path d="M40,40 L70,40" stroke="#ffd60a" stroke-width="2"/>
  <path d="M1160,40 L1160,70" stroke="#ffd60a" stroke-width="2"/>
  <path d="M1160,40 L1130,40" stroke="#ffd60a" stroke-width="2"/>
  <path d="M40,590 L40,560" stroke="#ffd60a" stroke-width="2"/>
  <path d="M40,590 L70,590" stroke="#ffd60a" stroke-width="2"/>
  <path d="M1160,590 L1160,560" stroke="#ffd60a" stroke-width="2"/>
  <path d="M1160,590 L1130,590" stroke="#ffd60a" stroke-width="2"/>

  <!-- Doc number -->
  <text x="80" y="80" font-family="monospace" font-size="12" fill="rgba(0,180,216,0.6)" letter-spacing="1">DOC. NO. KEPCO-W-2026-0517</text>
  <text x="1120" y="80" text-anchor="end" font-family="monospace" font-size="12" fill="#ffd60a" letter-spacing="1">Rev. 01</text>

  <!-- Project label -->
  <text x="600" y="200" text-anchor="middle" font-family="monospace" font-size="18" fill="rgba(0,180,216,0.7)" letter-spacing="8">— PROJECT —</text>
  <text x="600" y="260" text-anchor="middle" font-family="monospace" font-size="64" fill="white" font-weight="bold" letter-spacing="16">WEDDING</text>

  <!-- Circuit line -->
  <circle cx="370" cy="330" r="5" fill="#00b4d8"/>
  <line x1="375" y1="330" x2="575" y2="330" stroke="#00b4d8" stroke-width="1"/>
  <text x="600" y="338" text-anchor="middle" font-size="24">⚡</text>
  <line x1="625" y1="330" x2="825" y2="330" stroke="#00b4d8" stroke-width="1"/>
  <circle cx="830" cy="330" r="5" fill="#00b4d8"/>

  <!-- Names -->
  <text x="370" y="390" text-anchor="middle" font-family="serif" font-size="36" fill="white" font-weight="bold" letter-spacing="12">김 지 환</text>
  <text x="830" y="390" text-anchor="middle" font-family="serif" font-size="36" fill="white" font-weight="bold" letter-spacing="12">박 택 호</text>

  <!-- Date -->
  <text x="600" y="470" text-anchor="middle" font-family="monospace" font-size="20" fill="rgba(240,244,248,0.8)" letter-spacing="4">2026. 05. 17. SUN PM 1:00</text>

  <!-- Footer -->
  <text x="600" y="560" text-anchor="middle" font-family="monospace" font-size="12" fill="rgba(0,180,216,0.3)" letter-spacing="3">Powered by KEPCO E&amp;C</text>
</svg>
